<svg xmlns="http://www.w3.org/2000/svg" version="1.1" xmlns:xlink="http://www.w3.org/1999/xlink" viewBox="0 0 200 200" width="200" height="200"><rect width="200" height="200" fill="url('#gradient')"></rect><defs><linearGradient id="gradient" gradientTransform="rotate(59 0.5 0.5)"><stop offset="0%" stop-color="#498990"></stop><stop offset="100%" stop-color="#161f2f"></stop></linearGradient></defs><g><g fill="#ffffff" transform="matrix(7.358614718614719,0,0,7.358614718614719,9.117593964518917,151.58560635083683)" stroke="#161f2f" stroke-width="0.25"><path d="M5.75 0L1.07 0L1.07-14.22L5.65-14.22Q7.54-14.22 9.04-13.36Q10.55-12.51 11.39-10.95Q12.24-9.39 12.25-7.46L12.25-7.46L12.25-6.81Q12.25-4.85 11.42-3.31Q10.60-1.76 9.10-0.88Q7.60-0.01 5.75 0L5.75 0ZM5.65-11.57L4.50-11.57L4.50-2.64L5.69-2.64Q7.17-2.64 7.96-3.69Q8.75-4.74 8.75-6.81L8.75-6.81L8.75-7.42Q8.75-9.48 7.96-10.53Q7.17-11.57 5.65-11.57L5.65-11.57ZM13.45-4.82L13.44-5.38Q13.44-6.96 14.05-8.20Q14.67-9.43 15.82-10.10Q16.97-10.76 18.53-10.76L18.53-10.76Q20.90-10.76 22.27-9.29Q23.63-7.82 23.63-5.29L23.63-5.29L23.63-5.18Q23.63-2.71 22.26-1.25Q20.89 0.20 18.54 0.20L18.54 0.20Q16.29 0.20 14.92-1.16Q13.55-2.51 13.45-4.82L13.45-4.82ZM16.74-5.77L16.73-5.18Q16.73-3.71 17.19-3.03Q17.65-2.34 18.54-2.34L18.54-2.34Q20.30-2.34 20.34-5.05L20.34-5.05L20.34-5.38Q20.34-8.22 18.53-8.22L18.53-8.22Q16.88-8.22 16.74-5.77L16.74-5.77Z"></path></g></g></svg>